<svg width="30" height="39" viewBox="0 0 30 39" fill="none" xmlns="http://www.w3.org/2000/svg">
<path d="M15 29.7143C15.9946 29.7143 16.9484 29.323 17.6516 28.6264C18.3549 27.9298 18.75 26.9851 18.75 26C18.75 23.9386 17.0625 22.2857 15 22.2857C14.0054 22.2857 13.0516 22.677 12.3484 23.3736C11.6451 24.0702 11.25 25.0149 11.25 26C11.25 26.9851 11.6451 27.9298 12.3484 28.6264C13.0516 29.323 14.0054 29.7143 15 29.7143ZM26.25 13C27.2446 13 28.1984 13.3913 28.9016 14.0879C29.6049 14.7845 30 15.7292 30 16.7143V35.2857C30 36.2708 29.6049 37.2155 28.9016 37.9121C28.1984 38.6087 27.2446 39 26.25 39H3.75C2.75544 39 1.80161 38.6087 1.09835 37.9121C0.395088 37.2155 0 36.2708 0 35.2857V16.7143C0 14.6529 1.6875 13 3.75 13H5.625V9.28571C5.625 6.82299 6.61272 4.46113 8.37087 2.71972C10.129 0.978313 12.5136 0 15 0C16.2311 0 17.4502 0.240182 18.5877 0.706833C19.7251 1.17348 20.7586 1.85746 21.6291 2.71972C22.4997 3.58198 23.1902 4.60563 23.6614 5.73222C24.1325 6.85882 24.375 8.0663 24.375 9.28571V13H26.25ZM15 3.71429C13.5082 3.71429 12.0774 4.30127 11.0225 5.34612C9.96763 6.39096 9.375 7.80808 9.375 9.28571V13H20.625V9.28571C20.625 7.80808 20.0324 6.39096 18.9775 5.34612C17.9226 4.30127 16.4918 3.71429 15 3.71429Z" fill="#56657F"/>
</svg>
